<svg xmlns="http://www.w3.org/2000/svg" width="700" height="470" viewBox="0 0 700 470"><rect x="0" y="0" width="700" height="470" fill="#ffffff"/><text x="20.00" y="30.00" font-family="sans-serif" font-size="18.00" fill="#222222" text-anchor="start" font-weight="bold">WP3 sail-only decay: area vs years (solar min..max band)</text><line x1="80.00" y1="60.00" x2="80.00" y2="360.00" stroke="#444444" stroke-width="1.20"/><line x1="80.00" y1="360.00" x2="640.00" y2="360.00" stroke="#444444" stroke-width="1.20"/><line x1="80.00" y1="360.00" x2="640.00" y2="360.00" stroke="#dddddd" stroke-width="1.00"/><text x="72.00" y="364.00" font-family="sans-serif" font-size="10.00" fill="#7a7a7a" text-anchor="end" font-weight="normal">0.1</text><line x1="80.00" y1="300.39" x2="640.00" y2="300.39" stroke="#dddddd" stroke-width="1.00"/><text x="72.00" y="304.39" font-family="sans-serif" font-size="10.00" fill="#7a7a7a" text-anchor="end" font-weight="normal">1</text><line x1="80.00" y1="240.77" x2="640.00" y2="240.77" stroke="#dddddd" stroke-width="1.00"/><text x="72.00" y="244.77" font-family="sans-serif" font-size="10.00" fill="#7a7a7a" text-anchor="end" font-weight="normal">10</text><line x1="80.00" y1="181.16" x2="640.00" y2="181.16" stroke="#dddddd" stroke-width="1.00"/><text x="72.00" y="185.16" font-family="sans-serif" font-size="10.00" fill="#7a7a7a" text-anchor="end" font-weight="normal">100</text><line x1="80.00" y1="121.55" x2="640.00" y2="121.55" stroke="#dddddd" stroke-width="1.00"/><text x="72.00" y="125.55" font-family="sans-serif" font-size="10.00" fill="#7a7a7a" text-anchor="end" font-weight="normal">1000</text><line x1="80.00" y1="61.93" x2="640.00" y2="61.93" stroke="#dddddd" stroke-width="1.00"/><text x="72.00" y="65.93" font-family="sans-serif" font-size="10.00" fill="#7a7a7a" text-anchor="end" font-weight="normal">10000</text><text x="80.00" y="376.00" font-family="sans-serif" font-size="10.00" fill="#7a7a7a" text-anchor="middle" font-weight="normal">5</text><text x="140.07" y="376.00" font-family="sans-serif" font-size="10.00" fill="#7a7a7a" text-anchor="middle" font-weight="normal">10</text><text x="219.49" y="376.00" font-family="sans-serif" font-size="10.00" fill="#7a7a7a" text-anchor="middle" font-weight="normal">25</text><text x="279.56" y="376.00" font-family="sans-serif" font-size="10.00" fill="#7a7a7a" text-anchor="middle" font-weight="normal">50</text><text x="339.63" y="376.00" font-family="sans-serif" font-size="10.00" fill="#7a7a7a" text-anchor="middle" font-weight="normal">100</text><text x="399.71" y="376.00" font-family="sans-serif" font-size="10.00" fill="#7a7a7a" text-anchor="middle" font-weight="normal">200</text><text x="459.78" y="376.00" font-family="sans-serif" font-size="10.00" fill="#7a7a7a" text-anchor="middle" font-weight="normal">400</text><text x="519.85" y="376.00" font-family="sans-serif" font-size="10.00" fill="#7a7a7a" text-anchor="middle" font-weight="normal">800</text><text x="539.19" y="376.00" font-family="sans-serif" font-size="10.00" fill="#7a7a7a" text-anchor="middle" font-weight="normal">1000</text><text x="579.93" y="376.00" font-family="sans-serif" font-size="10.00" fill="#7a7a7a" text-anchor="middle" font-weight="normal">1600</text><text x="640.00" y="376.00" font-family="sans-serif" font-size="10.00" fill="#7a7a7a" text-anchor="middle" font-weight="normal">3200</text><text x="360.00" y="394.00" font-family="sans-serif" font-size="11.00" fill="#7a7a7a" text-anchor="middle" font-weight="normal">sail area [m^2] (log)</text><text x="26.00" y="210.00" font-family="sans-serif" font-size="11.00" fill="#7a7a7a" text-anchor="middle" font-weight="normal">years to 180 km (log)</text><line x1="80.00" y1="217.05" x2="640.00" y2="217.05" stroke="#b23b3b" stroke-width="1.60" stroke-dasharray="6,4"/><text x="636.00" y="212.05" font-family="sans-serif" font-size="11.00" fill="#b23b3b" text-anchor="end" font-weight="normal">25-yr guideline</text><polygon points="80.00,60.00 140.07,77.95 219.49,101.67 279.56,119.61 339.63,137.56 399.71,155.50 459.78,173.45 519.85,191.40 539.19,197.17 579.93,209.34 640.00,227.29 640.00,299.07 579.93,281.12 539.19,268.95 519.85,263.18 459.78,245.23 399.71,227.29 339.63,209.34 279.56,191.40 219.49,173.45 140.07,149.73 80.00,131.78" fill="#9fbfe0" fill-opacity="0.35"/><polyline points="80.00,131.78 140.07,149.73 219.49,173.45 279.56,191.40 339.63,209.34 399.71,227.29 459.78,245.23 519.85,263.18 539.19,268.95 579.93,281.12 640.00,299.07" fill="none" stroke="#2f6db3" stroke-width="1.60"/><polyline points="80.00,60.00 140.07,77.95 219.49,101.67 279.56,119.61 339.63,137.56 399.71,155.50 459.78,173.45 519.85,191.40 539.19,197.17 579.93,209.34 640.00,227.29" fill="none" stroke="#2f6db3" stroke-width="1.60"/><polygon points="80.00,135.81 140.07,153.76 219.49,177.48 279.56,195.43 339.63,213.37 399.71,231.32 459.78,249.26 519.85,267.21 539.19,272.98 579.93,285.15 640.00,303.10 640.00,360.00 579.93,356.93 539.19,344.77 519.85,338.99 459.78,321.04 399.71,303.10 339.63,285.15 279.56,267.21 219.49,249.26 140.07,225.54 80.00,207.59" fill="#e0b89f" fill-opacity="0.35"/><polyline points="80.00,207.59 140.07,225.54 219.49,249.26 279.56,267.21 339.63,285.15 399.71,303.10 459.78,321.04 519.85,338.99 539.19,344.77 579.93,356.93 640.00,360.00" fill="none" stroke="#c76a2a" stroke-width="1.60"/><polyline points="80.00,135.81 140.07,153.76 219.49,177.48 279.56,195.43 339.63,213.37 399.71,231.32 459.78,249.26 519.85,267.21 539.19,272.98 579.93,285.15 640.00,303.10" fill="none" stroke="#c76a2a" stroke-width="1.60"/><rect x="90.00" y="66.00" width="12.00" height="12.00" fill="#2f6db3" stroke="none" stroke-width="0.00" fill-opacity="1.00"/><text x="107.00" y="76.00" font-family="sans-serif" font-size="11.00" fill="#222222" text-anchor="start" font-weight="normal">SL-16  (25-yr area 135..2155 m^2)</text><rect x="390.00" y="66.00" width="12.00" height="12.00" fill="#c76a2a" stroke="none" stroke-width="0.00" fill-opacity="1.00"/><text x="407.00" y="76.00" font-family="sans-serif" font-size="11.00" fill="#222222" text-anchor="start" font-weight="normal">SL-8  (25-yr area 7..115 m^2)</text><text x="20.00" y="447.00" font-family="sans-serif" font-size="11.00" fill="#7a7a7a" text-anchor="start" font-weight="normal">band = solar max (fast) .. solar min (slow); the heavy high SL-16 class needs an impractically large sail to meet 25 yr while the light SL-8 class closes (motivates T1).</text><text x="20.00" y="462.00" font-family="sans-serif" font-size="11.00" fill="#7a7a7a" text-anchor="start" font-weight="normal">source: wp3_decay_trade.csv  schema 1.0  seed n/a (deterministic decay model)</text></svg>
