<svg xmlns="http://www.w3.org/2000/svg" width="560" height="420" viewBox="0 0 560 420"><rect x="0" y="0" width="560" height="420" fill="#ffffff"/><text x="20.00" y="30.00" font-family="sans-serif" font-size="18.00" fill="#222222" text-anchor="start" font-weight="bold">WP5 keep-out violation rate (+ Wilson 95% CI)</text><line x1="90.00" y1="70.00" x2="90.00" y2="320.00" stroke="#444444" stroke-width="1.20"/><line x1="90.00" y1="320.00" x2="520.00" y2="320.00" stroke="#444444" stroke-width="1.20"/><line x1="90.00" y1="70.00" x2="90.00" y2="320.00" stroke="#dddddd" stroke-width="1.00"/><text x="90.00" y="336.00" font-family="sans-serif" font-size="10.00" fill="#7a7a7a" text-anchor="middle" font-weight="normal">0.000</text><line x1="176.00" y1="70.00" x2="176.00" y2="320.00" stroke="#dddddd" stroke-width="1.00"/><text x="176.00" y="336.00" font-family="sans-serif" font-size="10.00" fill="#7a7a7a" text-anchor="middle" font-weight="normal">0.002</text><line x1="262.00" y1="70.00" x2="262.00" y2="320.00" stroke="#dddddd" stroke-width="1.00"/><text x="262.00" y="336.00" font-family="sans-serif" font-size="10.00" fill="#7a7a7a" text-anchor="middle" font-weight="normal">0.004</text><line x1="348.00" y1="70.00" x2="348.00" y2="320.00" stroke="#dddddd" stroke-width="1.00"/><text x="348.00" y="336.00" font-family="sans-serif" font-size="10.00" fill="#7a7a7a" text-anchor="middle" font-weight="normal">0.006</text><line x1="434.00" y1="70.00" x2="434.00" y2="320.00" stroke="#dddddd" stroke-width="1.00"/><text x="434.00" y="336.00" font-family="sans-serif" font-size="10.00" fill="#7a7a7a" text-anchor="middle" font-weight="normal">0.009</text><line x1="520.00" y1="70.00" x2="520.00" y2="320.00" stroke="#dddddd" stroke-width="1.00"/><text x="520.00" y="336.00" font-family="sans-serif" font-size="10.00" fill="#7a7a7a" text-anchor="middle" font-weight="normal">0.011</text><line x1="90.00" y1="132.50" x2="397.14" y2="132.50" stroke="#2f6db3" stroke-width="2.00"/><line x1="90.00" y1="125.50" x2="90.00" y2="139.50" stroke="#2f6db3" stroke-width="2.00"/><line x1="397.14" y1="125.50" x2="397.14" y2="139.50" stroke="#2f6db3" stroke-width="2.00"/><circle cx="90.00" cy="132.50" r="5.00" fill="#2f6db3"/><text x="80.00" y="136.50" font-family="sans-serif" font-size="12.00" fill="#222222" text-anchor="end" font-weight="normal">SL-16</text><text x="405.14" y="136.50" font-family="sans-serif" font-size="11.00" fill="#222222" text-anchor="start" font-weight="normal">0.000  [0.000, 0.008]</text><line x1="90.00" y1="257.50" x2="397.14" y2="257.50" stroke="#c76a2a" stroke-width="2.00"/><line x1="90.00" y1="250.50" x2="90.00" y2="264.50" stroke="#c76a2a" stroke-width="2.00"/><line x1="397.14" y1="250.50" x2="397.14" y2="264.50" stroke="#c76a2a" stroke-width="2.00"/><circle cx="90.00" cy="257.50" r="5.00" fill="#c76a2a"/><text x="80.00" y="261.50" font-family="sans-serif" font-size="12.00" fill="#222222" text-anchor="end" font-weight="normal">SL-8</text><text x="405.14" y="261.50" font-family="sans-serif" font-size="11.00" fill="#222222" text-anchor="start" font-weight="normal">0.000  [0.000, 0.008]</text><text x="305.00" y="354.00" font-family="sans-serif" font-size="11.00" fill="#7a7a7a" text-anchor="middle" font-weight="normal">violation rate (fraction of runs)</text><rect x="90.00" y="344.00" width="430.00" height="20.00" fill="#fbeeee" stroke="#b23b3b" stroke-width="1.00" fill-opacity="1.00"/><text x="98.00" y="358.00" font-family="sans-serif" font-size="11.00" fill="#b23b3b" text-anchor="start" font-weight="normal">Simplified research visualization, not a flight safety certificate.</text><text x="20.00" y="397.00" font-family="sans-serif" font-size="11.00" fill="#7a7a7a" text-anchor="start" font-weight="normal">Wilson 95% CI (z=1.959963984540054); rate reported even at zero.</text><text x="20.00" y="412.00" font-family="sans-serif" font-size="11.00" fill="#7a7a7a" text-anchor="start" font-weight="normal">source: wp5_campaign_summary.csv  schema 1.1  seed 0x5AD5C0DECAFE2026  N=500</text></svg>
