<svg xmlns="http://www.w3.org/2000/svg" width="680" height="460" viewBox="0 0 680 460"><rect x="0" y="0" width="680" height="460" fill="#ffffff"/><text x="20.00" y="30.00" font-family="sans-serif" font-size="18.00" fill="#222222" text-anchor="start" font-weight="bold">WP6 amortization: cost/removal vs kits carried N</text><line x1="70.00" y1="60.00" x2="70.00" y2="350.00" stroke="#444444" stroke-width="1.20"/><line x1="70.00" y1="350.00" x2="620.00" y2="350.00" stroke="#444444" stroke-width="1.20"/><line x1="70.00" y1="350.00" x2="620.00" y2="350.00" stroke="#dddddd" stroke-width="1.00"/><text x="62.00" y="354.00" font-family="sans-serif" font-size="10.00" fill="#7a7a7a" text-anchor="end" font-weight="normal">0</text><line x1="70.00" y1="292.00" x2="620.00" y2="292.00" stroke="#dddddd" stroke-width="1.00"/><text x="62.00" y="296.00" font-family="sans-serif" font-size="10.00" fill="#7a7a7a" text-anchor="end" font-weight="normal">35</text><line x1="70.00" y1="234.00" x2="620.00" y2="234.00" stroke="#dddddd" stroke-width="1.00"/><text x="62.00" y="238.00" font-family="sans-serif" font-size="10.00" fill="#7a7a7a" text-anchor="end" font-weight="normal">70</text><line x1="70.00" y1="176.00" x2="620.00" y2="176.00" stroke="#dddddd" stroke-width="1.00"/><text x="62.00" y="180.00" font-family="sans-serif" font-size="10.00" fill="#7a7a7a" text-anchor="end" font-weight="normal">105</text><line x1="70.00" y1="118.00" x2="620.00" y2="118.00" stroke="#dddddd" stroke-width="1.00"/><text x="62.00" y="122.00" font-family="sans-serif" font-size="10.00" fill="#7a7a7a" text-anchor="end" font-weight="normal">140</text><line x1="70.00" y1="60.00" x2="620.00" y2="60.00" stroke="#dddddd" stroke-width="1.00"/><text x="62.00" y="64.00" font-family="sans-serif" font-size="10.00" fill="#7a7a7a" text-anchor="end" font-weight="normal">175</text><text x="70.00" y="368.00" font-family="sans-serif" font-size="11.00" fill="#222222" text-anchor="middle" font-weight="normal">1</text><text x="148.57" y="368.00" font-family="sans-serif" font-size="11.00" fill="#222222" text-anchor="middle" font-weight="normal">2</text><text x="227.14" y="368.00" font-family="sans-serif" font-size="11.00" fill="#222222" text-anchor="middle" font-weight="normal">3</text><text x="305.71" y="368.00" font-family="sans-serif" font-size="11.00" fill="#222222" text-anchor="middle" font-weight="normal">4</text><text x="384.29" y="368.00" font-family="sans-serif" font-size="11.00" fill="#222222" text-anchor="middle" font-weight="normal">5</text><text x="462.86" y="368.00" font-family="sans-serif" font-size="11.00" fill="#222222" text-anchor="middle" font-weight="normal">6</text><text x="541.43" y="368.00" font-family="sans-serif" font-size="11.00" fill="#222222" text-anchor="middle" font-weight="normal">7</text><text x="620.00" y="368.00" font-family="sans-serif" font-size="11.00" fill="#222222" text-anchor="middle" font-weight="normal">8</text><text x="345.00" y="386.00" font-family="sans-serif" font-size="11.00" fill="#7a7a7a" text-anchor="middle" font-weight="normal">kits carried N</text><text x="24.00" y="205.00" font-family="sans-serif" font-size="11.00" fill="#7a7a7a" text-anchor="middle" font-weight="normal">CU / removal</text><polygon points="70.00,86.36 148.57,211.74 227.14,253.97 305.71,251.01 384.29,248.06 462.86,245.10 541.43,242.14 620.00,239.18 620.00,283.50 541.43,285.27 462.86,287.04 384.29,288.82 305.71,275.75 227.14,255.08 148.57,213.73 70.00,89.68" fill="#9fbfe0" fill-opacity="0.35"/><polyline points="70.00,89.68 148.57,213.73 227.14,255.08 305.71,275.75 384.29,273.53 462.86,271.32 541.43,269.10 620.00,266.88" fill="none" stroke="#2f6db3" stroke-width="2.40"/><circle cx="70.00" cy="89.68" r="2.60" fill="#2f6db3"/><circle cx="148.57" cy="213.73" r="2.60" fill="#2f6db3"/><circle cx="227.14" cy="255.08" r="2.60" fill="#2f6db3"/><circle cx="305.71" cy="275.75" r="2.60" fill="#2f6db3"/><circle cx="384.29" cy="273.53" r="2.60" fill="#2f6db3"/><circle cx="462.86" cy="271.32" r="2.60" fill="#2f6db3"/><circle cx="541.43" cy="269.10" r="2.60" fill="#2f6db3"/><circle cx="620.00" cy="266.88" r="2.60" fill="#2f6db3"/><polyline points="70.00,90.47 148.57,214.15 227.14,255.38 305.71,275.99 384.29,273.78 462.86,271.58 541.43,269.37 620.00,267.17" fill="none" stroke="#c76a2a" stroke-width="2.40"/><circle cx="70.00" cy="90.47" r="2.60" fill="#c76a2a"/><circle cx="148.57" cy="214.15" r="2.60" fill="#c76a2a"/><circle cx="227.14" cy="255.38" r="2.60" fill="#c76a2a"/><circle cx="305.71" cy="275.99" r="2.60" fill="#c76a2a"/><circle cx="384.29" cy="273.78" r="2.60" fill="#c76a2a"/><circle cx="462.86" cy="271.58" r="2.60" fill="#c76a2a"/><circle cx="541.43" cy="269.37" r="2.60" fill="#c76a2a"/><circle cx="620.00" cy="267.17" r="2.60" fill="#c76a2a"/><line x1="305.71" y1="60.00" x2="305.71" y2="350.00" stroke="#6a4fb3" stroke-width="1.30" stroke-dasharray="5,4"/><text x="311.71" y="78.00" font-family="sans-serif" font-size="11.00" fill="#6a4fb3" text-anchor="start" font-weight="normal">N=4: min 44.8 CU (0.285x of N=1)</text><text x="311.71" y="94.00" font-family="sans-serif" font-size="10.00" fill="#7a7a7a" text-anchor="start" font-weight="normal">Delta-v-limited; curve turns up beyond</text><rect x="80.00" y="66.00" width="12.00" height="12.00" fill="#2f6db3" stroke="none" stroke-width="0.00" fill-opacity="1.00"/><text x="98.00" y="76.00" font-family="sans-serif" font-size="11.00" fill="#222222" text-anchor="start" font-weight="normal">SL-16</text><rect x="270.00" y="66.00" width="12.00" height="12.00" fill="#c76a2a" stroke="none" stroke-width="0.00" fill-opacity="1.00"/><text x="288.00" y="76.00" font-family="sans-serif" font-size="11.00" fill="#222222" text-anchor="start" font-weight="normal">SL-8</text><text x="20.00" y="437.00" font-family="sans-serif" font-size="11.00" fill="#7a7a7a" text-anchor="start" font-weight="normal">line = p50 cost/removal; shaded = catalog-A p05..p95. Ratio-to-N1 read from CSV.</text><text x="20.00" y="452.00" font-family="sans-serif" font-size="11.00" fill="#7a7a7a" text-anchor="start" font-weight="normal">source: wp6_cost_summary.csv  schema 1.0  seed 0x5AD5C0DECAFE2026  (WP6 re-runs the WP5 engine; relative cost units CU)</text></svg>
